<?xml version="1.0" encoding="utf-8"?>
<!-- Generator: Adobe Illustrator 27.2.0, SVG Export Plug-In . SVG Version: 6.00 Build 0)  -->
<svg version="1.1" id="Capa_1" xmlns="http://www.w3.org/2000/svg" xmlns:xlink="http://www.w3.org/1999/xlink" x="0px" y="0px"
	 viewBox="0 0 800 800" style="enable-background:new 0 0 800 800;" xml:space="preserve">
<g>
	<g>
		<path d="M928.4,96.8L928.4,96.8c0-0.1,0.1-0.1,0.1-0.1C928.5,96.8,928.5,96.8,928.4,96.8z"/>
		<path d="M913.6,72.3C913.6,72.3,913.6,72.3,913.6,72.3C913.6,72.3,913.6,72.2,913.6,72.3L913.6,72.3z"/>
	</g>
	<path d="M616,625.3c-9.9-103.8-25.2-320.7-25.8-325.4c0,0-60-188.8-60-188.7L502.8,54c-13.7-25.8-26-50.9-41.9-53.8
		c-7.9-1.5-71.1,7-72.9,8.2c-0.5-0.1-0.9-0.3-1.4-0.4c-7.9-1.5-59.2,0.1-69.2,5.8c-8.8,5-120.3,85.5-120.3,85.5
		c-19.7,15.5-17.9,35.8-4.9,55.2c11.5,17,34,21.4,52.2,14.3c14.9,6.7,32.9,5.1,46.6-5.7l0.5-0.3c13,3.1,27.3,0.5,38.7-8.4l29.3-20.1
		l44,136.8c2.7,11.5-4.2,18.3-10,21.1c-24.9,12.2-133.9-76.2-160.1-95.5c-21.9-12.2-49.5-4.3-61.7,17.6c-12.2,21.9-7.1,50.8,17,69.7
		c0,0,44.1,30.1,66.4,58.8c62.1,80.1,144.9,236.7,182.3,245.5v152.1c0,31.9,30.9,57.9,62.8,59c1.5,0.2,47.8,0.8,81,0.7
		c7.5,0,18.3-3,24.9-10.5C622.7,770.7,620.2,668.8,616,625.3z"/>
</g>
</svg>
