<?xml version="1.0" encoding="utf-8"?>
<!-- Generator: Adobe Illustrator 27.2.0, SVG Export Plug-In . SVG Version: 6.00 Build 0)  -->
<svg version="1.1" id="Capa_1" xmlns="http://www.w3.org/2000/svg" xmlns:xlink="http://www.w3.org/1999/xlink" x="0px" y="0px"
	 viewBox="0 0 800 800" style="enable-background:new 0 0 800 800;" xml:space="preserve">
<g>
	<g>
		<path d="M776.8,174.9L776.8,174.9C776.8,174.9,776.9,174.9,776.8,174.9C776.9,174.9,776.9,174.9,776.8,174.9z"/>
		<path d="M997.7,620.3C997.7,620.3,997.7,620.3,997.7,620.3L997.7,620.3C997.7,620.3,997.7,620.3,997.7,620.3z"/>
		<path d="M765.3,155.9C765.3,155.9,765.3,155.9,765.3,155.9C765.3,155.9,765.3,155.8,765.3,155.9L765.3,155.9z"/>
	</g>
	<path d="M593.1,151.1c-0.7-4.5-0.5-30.2-20-35.2c-21.7-5.5-41.3,2-42.9,20.4l0.2-15.5c0-26.2-21.2-32.2-47.4-32.2
		c-25.7,0-46,5.9-47.3,25.8v-6c0-26.2-22.1-32-48.3-32c-25.3,0-45.1,5.5-46.4,29.6c-1-10.7-17.9-17.6-42.3-16.3
		c-24.4,1.3-45.6,11.1-44.3,35.5l-0.1,85c-25.2,10.2-53.1,18.6-54.6,58.9c0,0-3.8,61.9-0.5,81.2c8.8,52.5,74.9,179.3,102.5,186.2
		l-0.1,129.5c0,31.1,30.1,56.4,61.2,57.5c2.1,0.2,142.5,0.4,142.5,0.4c34.1,0,54.7-27.6,54.7-61.7V544.7c18.6-4.4,34-41.3,31.3-63.2
		L593.1,151.1z"/>
</g>
</svg>
