<?xml version="1.0" encoding="utf-8"?>
<!-- Generator: Adobe Illustrator 27.2.0, SVG Export Plug-In . SVG Version: 6.00 Build 0)  -->
<svg version="1.1" id="Capa_1" xmlns="http://www.w3.org/2000/svg" xmlns:xlink="http://www.w3.org/1999/xlink" x="0px" y="0px"
	 viewBox="0 0 800 800" style="enable-background:new 0 0 800 800;" xml:space="preserve">
<g>
	<g>
		<path d="M766,307.9L766,307.9C766,307.8,766,307.9,766,307.9C766,307.9,766,307.9,766,307.9z"/>
		<path d="M755.9,291.3C755.9,291.3,755.9,291.3,755.9,291.3C755.9,291.3,755.9,291.2,755.9,291.3L755.9,291.3z"/>
	</g>
	<g>
		<path d="M274.9,399.9c4.4-0.2,16.5-0.1,24.8,5.3c2.2,1.4,4.2,3.2,7,3.4c1.2,0.1,9.1,0.2,9.3-9.3L270.3,62.1
			c-1-18.3,13.1-33.9,31.4-34.9c18.3-0.9,33.9,13.1,34.9,31.4c0,0,39.8,231.8,40,232.6c0,0,1.8,8.5,10.8,8.5c6.2,0,11.2-5,11.2-11.2
			l20-255.4c0-18.3,14.8-33.2,33.2-33.2c18.3,0,33.2,14.9,33.2,33.2L467,286c1-14.9,16.2-20,35.5-19.3c11.7,0.4,31.2,6,35.5,27.3
			l0,10.4c3.9-13.4,18.6-19.2,35.3-17.2c7.7,1,20.9,7.5,20.9,27.1v170.3c0,3.2,7.3,143.7-42.7,181.1v88c0,25.6-15.4,46.3-41,46.3
			c0,0-126.1-0.1-127.6-0.3c-23.3-0.8-45.9-19.8-45.9-43.1v-85.9c-23.8-6-87.4-127.4-90.7-159.2l-4.2-87.3
			C241,405.9,256.6,400.8,274.9,399.9z"/>
	</g>
</g>
</svg>
