<?xml version="1.0" encoding="utf-8"?>
<!-- Generator: Adobe Illustrator 27.2.0, SVG Export Plug-In . SVG Version: 6.00 Build 0)  -->
<svg version="1.1" id="Calque_1" xmlns="http://www.w3.org/2000/svg" xmlns:xlink="http://www.w3.org/1999/xlink" x="0px" y="0px"
	 viewBox="0 0 800 800" style="enable-background:new 0 0 800 800;" xml:space="preserve">
<style type="text/css">
	.st0{fill:#FFFFFF;stroke:#000000;stroke-width:10;stroke-miterlimit:10;}
	.st1{fill:#007272;stroke:#000000;stroke-width:10;stroke-miterlimit:10;}
	.st2{stroke:#000000;stroke-width:10;stroke-miterlimit:10;}
	.st3{fill:#00FF7F;stroke:#000000;stroke-width:10;stroke-miterlimit:10;}
	.st4{stroke:#000000;stroke-width:10.0002;stroke-miterlimit:10.0002;}
	.st5{fill:#7F7F7F;stroke:#000000;stroke-width:10;stroke-miterlimit:10;}
	.st6{fill:none;stroke:#000000;stroke-width:10;stroke-miterlimit:10;}
	.st7{fill:#007272;}
</style>
<g id="Head">
	<polygon id="Structure" class="st0" points="215.3,112.9 572.5,112.9 608.2,148.6 608.2,398.6 572.5,434.3 215.3,434.3 
		179.6,398.6 179.6,148.6 	"/>
	<polygon id="Top_plate" class="st1" points="301.8,112.9 337.5,148.6 444.6,148.6 480.3,112.9 	"/>
	<polygon id="Left_plate" class="st1" points="608.2,184.3 643.9,220 643.9,327.1 608.2,362.9 	"/>
	<polygon id="Right_plate" class="st1" points="179.6,184.3 143.9,220 143.9,327.1 179.6,362.9 	"/>
	<polygon id="Left_antenna" class="st2" points="166.8,197.1 165.3,77.1 179.6,20 193.9,20 193.9,55.7 185.5,55.7 179.6,77.1 
		179.6,184.3 	"/>
	<polygon id="Right_antenna" class="st2" points="621,197.1 622.5,77.1 608.2,20 593.9,20 593.9,55.7 602.3,55.7 608.2,77.1 
		608.2,184.3 	"/>
	<g id="Left_eye">
		<path class="st3" d="M298.2,295c-28.6,0-28.6,22.2-28.6-21.3v-50c0,0,0-43.3,28.6-39.4c28.6,3.9,28.6,39.4,28.6,39.4v50
			C326.8,315.4,326.8,295,298.2,295z"/>
		<circle class="st2" cx="305.3" cy="273.6" r="21.4"/>
	</g>
	<g id="Right_eye">
		<path class="st3" d="M483.9,295c-28.6,0-28.6,20.4-28.6-21.3v-50c0,0,0-34.1,28.6-28.6c28.6,7.4,28.6,28.6,28.6,28.6v50
			C512.5,317.2,512.5,295,483.9,295z"/>
		
			<ellipse transform="matrix(0.3162 -0.9487 0.9487 0.3162 76.1761 652.8878)" class="st4" cx="491" cy="273.6" rx="21.4" ry="21.4"/>
	</g>
	<g id="Mouth_00000112626056969708053060000000565856985520089511_">
		<path id="Outline_00000149360833762006826860000017257006464440716207_" class="st5" d="M293.9,368.5c0-9.9,37.1-13.3,57.1-7.8
			c40,7.8,40,7.8,80,0c20-4.8,61.4,0,61.4,7.8c0,29.8-41.4,32.2-41.4,32.2s-20,2.6-60,2.6s-60-2.6-60-2.6S293.9,398.3,293.9,368.5z"
			/>
		<line class="st6" x1="311" y1="359.4" x2="311" y2="395.1"/>
		<line class="st6" x1="331" y1="357.8" x2="331" y2="400.7"/>
		<line class="st6" x1="351" y1="360.7" x2="351" y2="403.3"/>
		<line class="st6" x1="371" y1="364.5" x2="371" y2="403.3"/>
		<line class="st6" x1="391" y1="366.5" x2="391" y2="402.9"/>
		<line class="st6" x1="411" y1="363.6" x2="411" y2="403.4"/>
		<line class="st6" x1="431" y1="360.7" x2="431" y2="403.3"/>
		<line class="st6" x1="451" y1="358.6" x2="451" y2="400.7"/>
		<line class="st6" x1="471" y1="360.1" x2="471" y2="396.1"/>
	</g>
	<path class="st6" d="M492.4,400.7"/>
	<path class="st6" d="M492.4,360.7"/>
</g>
<rect id="Neck" x="283.9" y="434.3" class="st2" width="214.3" height="60"/>
<g id="Body">
	<polygon id="Left_arm" class="st0" points="111.9,589.3 104.6,815.7 179.6,815.7 247.4,589.3 	"/>
	<polygon id="Right_arm" class="st0" points="675.9,589.3 683.2,815.7 608.2,815.7 540.4,589.3 	"/>
	<circle id="Left_shoulder" class="st2" cx="179.6" cy="557.1" r="75"/>
	<circle id="Right_shoulder" class="st2" cx="608.2" cy="557.1" r="75"/>
	<polygon id="Structure_00000013186160108262843000000008998097759326190470_" class="st0" points="215.3,494.3 572.5,494.3 
		608.2,530 608.2,630 588.2,680 558.2,815.7 229.6,815.7 199.6,680 179.6,630 179.6,530 	"/>
	<g id="Body_plate">
		<ellipse class="st7" cx="393.9" cy="650.6" rx="70" ry="70"/>
		<path d="M393.9,585.6c35.8,0,65,29.2,65,65s-29.2,65-65,65s-65-29.2-65-65S358.1,585.6,393.9,585.6 M393.9,575.6
			c-41.4,0-75,33.6-75,75s33.6,75,75,75s75-33.6,75-75S435.3,575.6,393.9,575.6L393.9,575.6z"/>
	</g>
	<path d="M179.6,630l129.3,10c0,0,0.4,95.7,85,95.6s85-93.4,85-93.4l129.3-10l-5,10.4l-114.2,9c0,0-9.9,93.9-95.1,93.9
		S298.8,649,298.8,649l-115-8.7L179.6,630z"/>
</g>
<line class="st6" x1="224.5" y1="795.9" x2="562.6" y2="795.9"/>
<line class="st6" x1="104.6" y1="795.9" x2="185.5" y2="795.9"/>
<line class="st6" x1="601.7" y1="795.9" x2="682.7" y2="795.9"/>
</svg>
