<?xml version="1.0" encoding="utf-8"?>
<!-- Generator: Adobe Illustrator 27.2.0, SVG Export Plug-In . SVG Version: 6.00 Build 0)  -->
<svg version="1.1" id="Layer_1" xmlns="http://www.w3.org/2000/svg" xmlns:xlink="http://www.w3.org/1999/xlink" x="0px" y="0px"
	 viewBox="0 0 800 800" style="enable-background:new 0 0 800 800;" xml:space="preserve">
<style type="text/css">
	.st0{fill:#ED5564;}
	.st1{fill:#CCD1D9;}
	.st2{opacity:0.2;fill:#FFFFFF;enable-background:new    ;}
	.st3{fill:#AAB2BC;}
	.st4{fill:#DA4453;}
	.st5{fill:#FFCE54;}
	.st6{fill:#F6BB42;}
</style>
<path class="st0" d="M545.9,603c0-4,1.6-7.8,4.4-10.6l42.2-42.2c5.8-5.8,15.3-5.8,21.1,0l134.3,134.3c5.8,5.8,5.8,15.3,0,21.1
	l-42.2,42.2c-5.8,5.8-15.3,5.8-21.1,0L550.2,613.6C547.4,610.8,545.9,607,545.9,603z"/>
<path class="st1" d="M113,218.6c-2-2-3.3-4.5-4-7.2L83.7,101.6c-1.1-5,0.4-10.3,4-13.9c3.6-3.6,8.9-5.2,13.9-4L211.4,109
	c2.7,0.6,5.2,2,7.2,4L603,497.4c5.8,5.8,5.8,15.3,0,21.1L518.6,603c-2.8,2.8-6.6,4.4-10.6,4.4c-4,0-7.8-1.6-10.6-4.4L113,218.6z"/>
<path class="st2" d="M87.7,87.7c3.6-3.6,8.9-5.2,13.9-4L211.4,109c2.7,0.6,5.2,2,7.2,4L603,497.4c5.8,5.8,5.8,15.3,0,21.1L518.6,603
	c-2.8,2.8-6.6,4.4-10.6,4.4c-4,0-7.8-1.6-10.6-4.4L113,218.6c-2-2-3.3-4.5-4-7.2L83.7,101.6C82.6,96.6,84.1,91.3,87.7,87.7z
	 M98.3,98.3L123.5,208L508,592.5l84.5-84.5L208,123.5L98.3,98.3L98.3,98.3L98.3,98.3z"/>
<path class="st3" d="M560.8,560.8c5.8-5.8,5.8-15.3,0-21.1L290.3,269.2c-5.8-5.8-15.3-5.8-21.1,0c-5.8,5.8-5.8,15.3,0,21.1
	l270.5,270.5C545.5,566.6,555,566.6,560.8,560.8z"/>
<g>
	<path class="st4" d="M691.9,628.5H565.2l-14.9-14.9c-2.8-2.8-4.4-6.6-4.4-10.5c0-1.5,0.2-3,0.7-4.4H662L691.9,628.5z"/>
	<path class="st4" d="M598.7,662h126.7l22.6,22.6c2.1,2.1,3.4,4.6,4,7.3H628.5L598.7,662z"/>
</g>
<g>
	<path class="st5" d="M444.7,634.7l190-190c5.8-5.8,15.3-5.8,21.1,0l31.7,31.7c5.8,5.8,5.8,15.3,0,21.1l-190,190
		c-2.8,2.8-6.6,4.4-10.6,4.4c-4,0-7.8-1.6-10.6-4.4l-31.7-31.7C438.8,650,438.8,640.5,444.7,634.7z"/>
	<path class="st5" d="M680.6,740.3c0-15.9,6.2-30.9,17.5-42.2c23.3-23.3,61.2-23.3,84.5,0c11.3,11.3,17.5,26.3,17.5,42.2
		c0,15.9-6.2,30.9-17.5,42.2l0,0l0,0c-11.3,11.3-26.3,17.5-42.2,17.5c-16,0-30.9-6.2-42.2-17.5C686.8,771.2,680.6,756.2,680.6,740.3
		z"/>
</g>
<ellipse class="st6" cx="740.3" cy="740.3" rx="14.9" ry="14.9"/>
</svg>
