<?xml version="1.0" encoding="utf-8"?>
<!-- Generator: Adobe Illustrator 27.2.0, SVG Export Plug-In . SVG Version: 6.00 Build 0)  -->
<svg version="1.1" id="Layer_1" xmlns="http://www.w3.org/2000/svg" xmlns:xlink="http://www.w3.org/1999/xlink" x="0px" y="0px"
	 viewBox="0 0 800 800" style="enable-background:new 0 0 800 800;" xml:space="preserve">
<style type="text/css">
	.st0{fill:#ED5564;}
	.st1{fill:#CCD1D9;}
	.st2{opacity:0.2;fill:#FFFFFF;enable-background:new    ;}
	.st3{fill:#AAB2BC;}
	.st4{fill:#DA4453;}
	.st5{fill:#FFCE54;}
	.st6{fill:#F6BB42;}
</style>
<path class="st0" d="M254.1,603c0-4-1.6-7.8-4.4-10.6l-42.2-42.2c-5.8-5.8-15.3-5.8-21.1,0L52.1,684.6c-5.8,5.8-5.8,15.3,0,21.1
	l42.2,42.2c5.8,5.8,15.3,5.8,21.1,0l134.3-134.3C252.6,610.8,254.1,607,254.1,603z"/>
<path class="st1" d="M687,218.6c2-2,3.3-4.5,4-7.2l25.3-109.7c1.1-5-0.4-10.3-4-13.9s-8.9-5.2-13.9-4L588.6,109
	c-2.7,0.6-5.2,2-7.2,4L197,497.4c-5.8,5.8-5.8,15.3,0,21.1l84.5,84.5c2.8,2.8,6.6,4.4,10.6,4.4c4,0,7.8-1.6,10.6-4.4L687,218.6z"/>
<path class="st2" d="M712.3,87.7c-3.6-3.6-8.9-5.2-13.9-4L588.6,109c-2.7,0.6-5.2,2-7.2,4L197,497.4c-5.8,5.8-5.8,15.3,0,21.1
	l84.5,84.5c2.8,2.8,6.6,4.4,10.6,4.4c4,0,7.8-1.6,10.6-4.4L687,218.6c2-2,3.3-4.5,4-7.2l25.3-109.7
	C717.4,96.6,715.9,91.3,712.3,87.7z M701.7,98.3L676.5,208L292,592.5L207.5,508L592,123.5L701.7,98.3L701.7,98.3L701.7,98.3z"/>
<path class="st3" d="M239.2,560.8c-5.8-5.8-5.8-15.3,0-21.1l270.5-270.5c5.8-5.8,15.3-5.8,21.1,0c5.8,5.8,5.8,15.3,0,21.1
	L260.3,560.8C254.5,566.6,245,566.6,239.2,560.8z"/>
<g>
	<path class="st4" d="M108.1,628.5h126.7l14.9-14.9c2.8-2.8,4.4-6.6,4.4-10.5c0-1.5-0.2-3-0.7-4.4H138L108.1,628.5z"/>
	<path class="st4" d="M201.3,662H74.6l-22.6,22.6c-2.1,2.1-3.4,4.6-4,7.3h123.4L201.3,662z"/>
</g>
<g>
	<path class="st5" d="M355.3,634.7l-190-190c-5.8-5.8-15.3-5.8-21.1,0l-31.7,31.7c-5.8,5.8-5.8,15.3,0,21.1l190,190
		c2.8,2.8,6.6,4.4,10.6,4.4c4,0,7.8-1.6,10.6-4.4l31.7-31.7C361.2,650,361.2,640.5,355.3,634.7z"/>
	<path class="st5" d="M119.4,740.3c0-15.9-6.2-30.9-17.5-42.2c-23.3-23.3-61.2-23.3-84.5,0C6.2,709.3,0,724.3,0,740.3
		c0,15.9,6.2,30.9,17.5,42.2l0,0l0,0C28.8,793.8,43.8,800,59.7,800s30.9-6.2,42.2-17.5C113.2,771.2,119.4,756.2,119.4,740.3z"/>
</g>
<ellipse class="st6" cx="59.7" cy="740.3" rx="14.9" ry="14.9"/>
</svg>
