<svg id="Dessin_explicatif" data-name="Dessin explicatif" xmlns="http://www.w3.org/2000/svg" width="704" height="704" viewBox="0 0 704 704">
  <circle id="Rond" cx="352" cy="352" r="352" fill="#ffc933"/>
  <g id="Pierre">
    <g id="Ellipse_7" data-name="Ellipse 7" transform="translate(281 50)" fill="#fff" stroke="#000" stroke-width="1">
      <ellipse cx="71.5" cy="69" rx="71.5" ry="69" stroke="none"/>
      <ellipse cx="71.5" cy="69" rx="71" ry="68.5" fill="none"/>
    </g>
    <path id="Icon_awesome-hand-rock" data-name="Icon awesome-hand-rock" d="M71.516,9.636a7.385,7.385,0,0,0-7.509,7.385H62.777v-4.8a7.48,7.48,0,0,0-7.262-7.509A7.385,7.385,0,0,0,48.006,12.1v4.924H46.775V9.759A7.48,7.48,0,0,0,39.512,2.25,7.385,7.385,0,0,0,32,9.636v7.385H30.773v-4.8A7.48,7.48,0,0,0,23.51,4.712,7.385,7.385,0,0,0,16,12.1V33.023l-1.231-1.092v-7.4a7.48,7.48,0,0,0-7.262-7.509A7.385,7.385,0,0,0,0,24.407V34.623A14.806,14.806,0,0,0,4.954,45.671L22.141,60.95a7.418,7.418,0,0,1,2.477,5.524V67.5A3.684,3.684,0,0,0,28.311,71.2H65.238A3.684,3.684,0,0,0,68.931,67.5v-.446a14.99,14.99,0,0,1,1.154-5.739l7.539-17.894a14.707,14.707,0,0,0,1.154-5.739V17.145A7.469,7.469,0,0,0,71.516,9.636Z" transform="translate(313 81.777)"/>
  </g>
  <g id="Feuille">
    <g id="Ellipse_8" data-name="Ellipse 8" transform="translate(496 214)" fill="#fff" stroke="#000" stroke-width="1">
      <ellipse cx="71.5" cy="69" rx="71.5" ry="69" stroke="none"/>
      <ellipse cx="71.5" cy="69" rx="71" ry="68.5" fill="none"/>
    </g>
    <path id="Icon_awesome-hand-paper" data-name="Icon awesome-hand-paper" d="M59.88,18.751a5.952,5.952,0,0,0-5.974,5.974V37.5H52.734V11.688a5.952,5.952,0,0,0-5.974-5.974,5.859,5.859,0,0,0-5.745,5.858V37.5H39.844V5.975A5.952,5.952,0,0,0,33.87,0a5.859,5.859,0,0,0-5.745,5.858V37.5H26.953V11.834A5.952,5.952,0,0,0,20.979,5.86a5.859,5.859,0,0,0-5.745,5.858V46.288L10.6,39.913a5.859,5.859,0,1,0-9.477,6.893l18.4,25.3A7.031,7.031,0,0,0,25.206,75H54.15a7.031,7.031,0,0,0,6.844-5.421l3.883-16.5a28.128,28.128,0,0,0,.748-6.442V24.609A5.859,5.859,0,0,0,59.88,18.751Z" transform="translate(534.688 245.5)"/>
  </g>
  <g id="Lézard">
    <g id="Ellipse_10" data-name="Ellipse 10" transform="translate(149 428)" fill="#fff" stroke="#000" stroke-width="1">
      <ellipse cx="71.5" cy="69" rx="71.5" ry="69" stroke="none"/>
      <ellipse cx="71.5" cy="69" rx="71" ry="68.5" fill="none"/>
    </g>
    <path id="Icon_awesome-hand-lizard" data-name="Icon awesome-hand-lizard" d="M50.188,60.8H75.282V45.613a12.547,12.547,0,0,0-1.939-6.7L52.034,5.173a6.274,6.274,0,0,0-5.3-2.923H3.137A3.137,3.137,0,0,0,0,5.387V7.478A7.319,7.319,0,0,0,7.319,14.8H37.377a2.353,2.353,0,0,1,2.172,3.257l-2.8,6.716a4.182,4.182,0,0,1-3.861,2.574H16.729a8.365,8.365,0,0,0-8.365,8.365v1.046A3.137,3.137,0,0,0,11.5,39.891H30.767a6.273,6.273,0,0,1,3.358.974L48.73,50.12a3.137,3.137,0,0,1,1.458,2.65Z" transform="translate(182.859 465.197)"/>
  </g>
  <g id="Spock">
    <g id="Ellipse_11" data-name="Ellipse 11" transform="translate(54 214)" fill="#fff" stroke="#000" stroke-width="1">
      <ellipse cx="71.5" cy="69" rx="71.5" ry="69" stroke="none"/>
      <ellipse cx="71.5" cy="69" rx="71" ry="68.5" fill="none"/>
    </g>
    <path id="Icon_awesome-hand-spock" data-name="Icon awesome-hand-spock" d="M71.678,14.462A5.967,5.967,0,0,0,64.5,18.87L59.912,38.127H58.259l6.493-25.959A5.956,5.956,0,1,0,53.2,9.279L45.987,38.127H43.738l-7.7-33.494A5.958,5.958,0,1,0,24.422,7.283l7.089,30.829h-1.46L24.869,15.356a5.958,5.958,0,0,0-11.617,2.651l5.808,25.556V55.388L10.035,46.9a5.953,5.953,0,1,0-8.161,8.668l19.912,18.75a7.136,7.136,0,0,0,4.9,1.936H58.959A7.135,7.135,0,0,0,65.81,71.13l3.9-13.151a14.441,14.441,0,0,0,.6-4.066V47.659a14.44,14.44,0,0,1,.387-3.306L76.1,21.64a5.988,5.988,0,0,0-4.423-7.178Z" transform="translate(87.723 245.001)"/>
  </g>
  <g id="Ciseaux">
    <g id="Ellipse_13" data-name="Ellipse 13" transform="translate(417 428)" fill="#fff" stroke="#000" stroke-width="1">
      <ellipse cx="71.5" cy="69" rx="71.5" ry="69" stroke="none"/>
      <ellipse cx="71.5" cy="69" rx="71" ry="68.5" fill="none"/>
    </g>
    <path id="Icon_awesome-hand-scissors" data-name="Icon awesome-hand-scissors" d="M32.484,63.609A6.016,6.016,0,0,1,38.5,57.594v-1.2H33.687a6.016,6.016,0,1,1,0-12.031H38.5v-1.2H7.219a7.219,7.219,0,1,1,0-14.437H38.5V26.678L11.8,16.189A7.219,7.219,0,1,1,17.077,2.752L45.7,14,49.443,9.32a6.016,6.016,0,0,1,7.682-1.465L73.969,17.48A6.016,6.016,0,0,1,77,22.7V58.8a6.016,6.016,0,0,1-4.638,5.856L51.909,69.465a6.013,6.013,0,0,1-1.378.16H38.5A6.016,6.016,0,0,1,32.484,63.609Z" transform="translate(450 461.063)"/>
  </g>
  <g id="Pierre_Ciseaux" data-name="Pierre &gt; Ciseaux" transform="matrix(-0.921, 0.391, -0.391, -0.921, 2009.602, 119.232)">
    <line id="Line_2" data-name="Line 2" y2="257.288" transform="translate(1540.5 323.5)" fill="none" stroke="#000" stroke-width="1"/>
    <g id="Polygon_1" data-name="Polygon 1" transform="translate(1531 314)">
      <path d="M 17.83534812927246 9.5 L 1.16465151309967 9.5 L 9.5 0.7259489297866821 L 17.83534812927246 9.5 Z" stroke="none"/>
      <path d="M 9.5 1.451908111572266 L 2.329313278198242 9 L 16.67068672180176 9 L 9.5 1.451908111572266 M 9.5 0 L 19 10 L 0 10 L 9.5 0 Z" stroke="none" fill="#000"/>
    </g>
  </g>
  <g id="Pierre_Lézard" data-name="Pierre &gt; Lézard" transform="matrix(-0.921, -0.391, 0.391, -0.921, 1541.712, 1323.074)">
    <line id="Line_2-2" data-name="Line 2" y2="256.484" transform="translate(1540.5 323.5)" fill="none" stroke="#000" stroke-width="1"/>
    <g id="Polygon_1-2" data-name="Polygon 1" transform="translate(1531 314)">
      <path d="M 17.83534812927246 9.5 L 1.16465151309967 9.5 L 9.5 0.7259489297866821 L 17.83534812927246 9.5 Z" stroke="none"/>
      <path d="M 9.5 1.451908111572266 L 2.329313278198242 9 L 16.67068672180176 9 L 9.5 1.451908111572266 M 9.5 0 L 19 10 L 0 10 L 9.5 0 Z" stroke="none" fill="#000"/>
    </g>
  </g>
  <g id="Lézard_Feuille" data-name="Lézard &gt; Feuille" transform="matrix(0.485, 0.875, -0.875, 0.485, 25.417, -1205.755)">
    <line id="Line_2-3" data-name="Line 2" y2="278.068" transform="translate(1540.5 323.5)" fill="none" stroke="#000" stroke-width="1"/>
    <g id="Polygon_1-3" data-name="Polygon 1" transform="translate(1531 314)">
      <path d="M 17.83534812927246 9.5 L 1.16465151309967 9.5 L 9.5 0.7259489297866821 L 17.83534812927246 9.5 Z" stroke="none"/>
      <path d="M 9.5 1.451908111572266 L 2.329313278198242 9 L 16.67068672180176 9 L 9.5 1.451908111572266 M 9.5 0 L 19 10 L 0 10 L 9.5 0 Z" stroke="none" fill="#000"/>
    </g>
  </g>
  <g id="Spock_Ciseaux" data-name="Spock &gt; Ciseaux" transform="translate(1480.714 -760.014) rotate(119)">
    <line id="Line_2-4" data-name="Line 2" x2="0.966" y2="286.204" transform="translate(1540.5 323.5)" fill="none" stroke="#000" stroke-width="1"/>
    <g id="Polygon_1-4" data-name="Polygon 1" transform="translate(1531 314)">
      <path d="M 17.83534812927246 9.5 L 1.16465151309967 9.5 L 9.5 0.7259489297866821 L 17.83534812927246 9.5 Z" stroke="none"/>
      <path d="M 9.5 1.451908111572266 L 2.329313278198242 9 L 16.67068672180176 9 L 9.5 1.451908111572266 M 9.5 0 L 19 10 L 0 10 L 9.5 0 Z" stroke="none" fill="#000"/>
    </g>
  </g>
  <g id="Feuille_Spock" data-name="Feuille &gt; Spock" transform="translate(-118 1833.438) rotate(-90)">
    <line id="Line_2-5" data-name="Line 2" y2="292" transform="translate(1540.5 323.5)" fill="none" stroke="#000" stroke-width="1"/>
    <g id="Polygon_1-5" data-name="Polygon 1" transform="translate(1531 314)">
      <path d="M 17.83534812927246 9.5 L 1.16465151309967 9.5 L 9.5 0.7259489297866821 L 17.83534812927246 9.5 Z" stroke="none"/>
      <path d="M 9.5 1.451908111572266 L 2.329313278198242 9 L 16.67068672180176 9 L 9.5 1.451908111572266 M 9.5 0 L 19 10 L 0 10 L 9.5 0 Z" stroke="none" fill="#000"/>
    </g>
  </g>
  <g id="Ciseaux_Lézard" data-name="Ciseaux &gt; Lézard" transform="translate(-22 2037.5) rotate(-90)">
    <line id="Line_2-6" data-name="Line 2" y2="116" transform="translate(1540.5 323.5)" fill="none" stroke="#000" stroke-width="1"/>
    <g id="Polygon_1-6" data-name="Polygon 1" transform="translate(1531 314)">
      <path d="M 17.83534812927246 9.5 L 1.16465151309967 9.5 L 9.5 0.7259489297866821 L 17.83534812927246 9.5 Z" stroke="none"/>
      <path d="M 9.5 1.451908111572266 L 2.329313278198242 9 L 16.67068672180176 9 L 9.5 1.451908111572266 M 9.5 0 L 19 10 L 0 10 L 9.5 0 Z" stroke="none" fill="#000"/>
    </g>
  </g>
  <g id="Ciseaux_Feuille" data-name="Ciseaux &gt; Feuille" transform="matrix(0.951, 0.309, -0.309, 0.951, -821.68, -426.351)">
    <line id="Line_2-7" data-name="Line 2" y2="81.08" transform="translate(1540.5 323.5)" fill="none" stroke="#000" stroke-width="1"/>
    <g id="Polygon_1-7" data-name="Polygon 1" transform="translate(1531 314)">
      <path d="M 17.83534812927246 9.5 L 1.16465151309967 9.5 L 9.5 0.7259489297866821 L 17.83534812927246 9.5 Z" stroke="none"/>
      <path d="M 9.5 1.451908111572266 L 2.329313278198242 9 L 16.67068672180176 9 L 9.5 1.451908111572266 M 9.5 0 L 19 10 L 0 10 L 9.5 0 Z" stroke="none" fill="#000"/>
    </g>
  </g>
  <g id="Feuille_Pierre" data-name="Feuille &gt; Pierre" transform="translate(-893.95 1013.896) rotate(-45)">
    <line id="Line_2-8" data-name="Line 2" y2="123.43" transform="translate(1540.5 323.5)" fill="none" stroke="#000" stroke-width="1"/>
    <g id="Polygon_1-8" data-name="Polygon 1" transform="translate(1531 314)">
      <path d="M 17.83534812927246 9.5 L 1.16465151309967 9.5 L 9.5 0.7259489297866821 L 17.83534812927246 9.5 Z" stroke="none"/>
      <path d="M 9.5 1.451908111572266 L 2.329313278198242 9 L 16.67068672180176 9 L 9.5 1.451908111572266 M 9.5 0 L 19 10 L 0 10 L 9.5 0 Z" stroke="none" fill="#000"/>
    </g>
  </g>
  <g id="Spock_Pierre" data-name="Spock &gt; Pierre" transform="translate(-479.572 -1209.8) rotate(49)">
    <line id="Line_2-9" data-name="Line 2" y2="130.343" transform="translate(1540.5 323.5)" fill="none" stroke="#000" stroke-width="1"/>
    <g id="Polygon_1-9" data-name="Polygon 1" transform="translate(1531 314)">
      <path d="M 17.83534812927246 9.5 L 1.16465151309967 9.5 L 9.5 0.7259489297866821 L 17.83534812927246 9.5 Z" stroke="none"/>
      <path d="M 9.5 1.451908111572266 L 2.329313278198242 9 L 16.67068672180176 9 L 9.5 1.451908111572266 M 9.5 0 L 19 10 L 0 10 L 9.5 0 Z" stroke="none" fill="#000"/>
    </g>
  </g>
  <g id="Lézard_Spock" data-name="Lézard &gt; Spock" transform="matrix(0.934, -0.358, 0.358, 0.934, -1395.593, 604.339)">
    <line id="Line_2-10" data-name="Line 2" y2="86.922" transform="translate(1540.5 323.5)" fill="none" stroke="#000" stroke-width="1"/>
    <g id="Polygon_1-10" data-name="Polygon 1" transform="translate(1531 314)">
      <path d="M 17.83534812927246 9.5 L 1.16465151309967 9.5 L 9.5 0.7259489297866821 L 17.83534812927246 9.5 Z" stroke="none"/>
      <path d="M 9.5 1.451908111572266 L 2.329313278198242 9 L 16.67068672180176 9 L 9.5 1.451908111572266 M 9.5 0 L 19 10 L 0 10 L 9.5 0 Z" stroke="none" fill="#000"/>
    </g>
  </g>
</svg>