<?xml version="1.0" encoding="utf-8"?>
<!-- Generator: Adobe Illustrator 27.2.0, SVG Export Plug-In . SVG Version: 6.00 Build 0)  -->
<svg version="1.1" id="_x32_" xmlns="http://www.w3.org/2000/svg" xmlns:xlink="http://www.w3.org/1999/xlink" x="0px" y="0px"
	 viewBox="0 0 800 800" style="enable-background:new 0 0 800 800;" xml:space="preserve">
<style type="text/css">
	.st0{fill:none;stroke:#FF0000;stroke-width:30;stroke-linecap:round;stroke-miterlimit:10;}
</style>
<g>
	<g>
		<path d="M603,197.5C554.4,157,471.8,94.9,456.8,74.9h-28.4v392.5c-9-2.6-18.5-4-28.3-4c-57.1,0-103.3,46.3-103.3,103.3
			c0,57,46.3,103.3,103.3,103.3c57.1,0,103.3-46.3,103.3-103.3c0,0,0-307.4,0-321.9c0-14.5,7.4-50.4,75,17.1
			c40,40-25.2,65.1-21.2,129.9l9.5-1.4c11.7-33.6,57.2-58.3,76.9-79.6C675.9,275.8,651.6,238,603,197.5z"/>
	</g>
	<line class="st0" x1="227.5" y1="122.5" x2="727.5" y2="622.5"/>
</g>
</svg>
