<?xml version="1.0" encoding="utf-8"?>
<!-- Generator: Adobe Illustrator 27.2.0, SVG Export Plug-In . SVG Version: 6.00 Build 0)  -->
<svg version="1.1" id="Calque_1" xmlns="http://www.w3.org/2000/svg" xmlns:xlink="http://www.w3.org/1999/xlink" x="0px" y="0px"
	 viewBox="0 0 800 800" style="enable-background:new 0 0 800 800;" xml:space="preserve">
<style type="text/css">
	.st0{fill:#FF8B7F;stroke:#000000;stroke-width:10;stroke-linejoin:round;stroke-miterlimit:10;}
	.st1{fill:#FFC29D;stroke:#000000;stroke-width:10;stroke-linejoin:round;stroke-miterlimit:10;}
	.st2{fill:#3E321A;stroke:#000000;stroke-width:10;stroke-linejoin:round;stroke-miterlimit:10;}
	.st3{fill:#FF135B;}
	.st4{fill:#FF657F;}
	.st5{fill:#FF0028;stroke:#000000;stroke-width:10;stroke-linejoin:round;stroke-miterlimit:10;}
	.st6{fill:none;stroke:#000000;stroke-width:10;stroke-miterlimit:10;}
	.st7{fill:#C8C8C8;stroke:#000000;stroke-miterlimit:10;}
</style>
<path id="Tee-shirt" class="st0" d="M703.8,657.7c0,0-25.6-156.3-66.5-201.8c-29.6-29.3-104.6-72.2-122-69l-230.4-1
	c-5.8-7.6-90,39.1-122,70c-40,45.5-66.7,201.8-66.7,201.8s-19.3,62.1,0,120c1,2.1,4.2,4.9,4.2,4.9c30.2,22.9,122.6,36.2,122.6,36.2
	l2.4-46l-37.5-36.2c0.8-35,13.3-61.5,13.3-61.5l21.7-49.2c0,0,7.5,84.4,0,192.8h354.4c-7.1-105.7,0-192.8,0-192.8l22.2,49.2
	c0,0,11.8,26.5,12.6,61.5l-37.5,36.2l2.4,46c0,0,108.6-18.4,122.9-35.9c0,0,2.9-3.1,3.9-5.2C723.1,719.8,703.8,657.7,703.8,657.7z"
	/>
<g id="Head_00000137851594333820240570000000196124171799771571_">
	<path id="Neck_00000164491315305902452950000005494592489333724568_" class="st1" d="M322.8,203.9l-19.2,178.3l94.5,25.9l95.3-29.8
		l-16.2-174.4H322.8z"/>
	<path id="Head_00000026860008632213233090000005917094435384230293_" class="st1" d="M250.1,172.4c0,0,0,40.5,20,110
		c18,46.2,37.3,57.1,80,90c32.1,17.5,70,17.5,100,0c51.1-36.9,61.7-42.3,80-90c20-67.2,20-110,20-110s0-150-150-150
		S250.1,172.4,250.1,172.4z"/>
	<path id="Hairs" class="st2" d="M400.1,22.4c165,0,165,115.8,155.5,152l-17.3,77.2c-9.5-91.5-69.3-122.6-69.3-122.6
		c-80.7-42.9-125.2-9.3-137.9,2s-45.4,37.3-69.2,120.6c-6.9-28.6-14.6-35.3-16.1-79.7C245.9,171.9,226,19.7,400.1,22.4z"/>
</g>
<g>
	<polygon class="st3" points="249.8,735.6 246.4,789.9 318.4,789.9 316.9,735.6 	"/>
	<polygon class="st4" points="316.9,735.6 318.4,789.9 390.4,789.9 390.4,735.6 	"/>
	<polygon class="st4" points="248.2,681.4 249.8,735.6 316.9,735.6 320.2,681.4 	"/>
	<polygon class="st3" points="248.2,624.7 248.2,681.4 320.2,681.4 318.7,627.2 	"/>
	<polygon class="st4" points="246.3,566.8 248,624.7 318.7,627.2 314.1,560.7 	"/>
	<polygon class="st3" points="244.1,492.9 246.3,566.8 314.4,560.7 312.6,494.6 	"/>
	<polygon class="st4" points="240.2,444.3 244.1,492.9 312.6,494.6 310.8,432.3 	"/>
	<path class="st3" d="M235.2,411.6l5,32.7l70.6-12l1.8-58.6C284.4,389.1,269.3,391.6,235.2,411.6z"/>
	<polygon class="st4" points="318.7,627.2 320.2,681.4 393.8,681.4 392.2,627.2 	"/>
	<polygon class="st4" points="312.6,494.6 314.4,560.7 388.1,563.7 386.1,494.6 	"/>
	<polygon class="st3" points="390.4,762.8 389.9,798.2 425.2,795.9 423.4,764.7 	"/>
	<polygon class="st3" points="551.4,735.6 554.7,789.9 482.7,789.9 484.3,735.6 	"/>
	<polygon class="st4" points="553,681.4 551.4,735.6 484.3,735.6 481,681.4 	"/>
	<polygon class="st3" points="553,624.7 553,681.4 481,681.4 482.5,627.2 	"/>
	<polygon class="st4" points="554.9,566.8 553.2,624.7 482.5,627.2 487.1,560.7 	"/>
	<polygon class="st3" points="557.1,492.9 554.9,566.8 486.7,560.7 488.6,494.6 	"/>
	<polygon class="st4" points="561,444.3 557.1,492.9 488.6,494.6 490.4,432.3 	"/>
	<path class="st3" d="M566,411.6l-5,32.7l-70.6-12l-1.8-58.6C516.8,389.1,531.9,391.6,566,411.6z"/>
	<polygon class="st4" points="423.4,495.3 423.4,561.4 487.1,560.7 488.6,494.6 	"/>
	<polygon class="st4" points="423.4,627.8 421.1,681.4 481,681.4 482.7,627.2 	"/>
	<polygon class="st4" points="421.1,736.3 421.1,789.9 482.7,789.9 484.3,735.6 	"/>
</g>
<g>
	<polygon class="st4" points="557.1,493.6 554.9,566.8 583.7,571.7 610.8,506.4 	"/>
	<polygon class="st3" points="662.6,531.4 615.6,565.6 598,537.5 625.1,472.1 	"/>
	<polygon class="st4" points="572.2,625.9 569.4,681.4 553,681.4 553,624.7 	"/>
	<polygon class="st4" points="615.6,565.6 601.8,610.7 577.6,586.8 598,537.5 	"/>
	<path class="st4" d="M632,457.3l-10,21.2l-61-34.3l5-32.7C566,411.6,609.5,435.1,632,457.3z"/>
	<polygon class="st3" points="601.8,610.7 590.8,643 581.5,622.6 577.6,586.8 	"/>
	<path class="st4" d="M667.5,529.2l-4.9,2.2l-37.5-59.3l6.9-14.8C632,457.3,649.9,469.3,667.5,529.2z"/>
	<polygon class="st4" points="680,606.9 632,623 615.6,565.6 662.6,531.4 	"/>
	<polygon class="st4" points="615.6,644.7 598.3,659.8 590.8,643 601.8,610.7 	"/>
	<polygon class="st3" points="691.6,661.6 642.2,676.2 632,623 680,606.9 	"/>
	<path class="st3" d="M624,685.3l-14.2,3.7c-5.7-17.6-11.5-29.1-11.5-29.1l17.3-15.1L624,685.3z"/>
	<polygon class="st4" points="642.2,676.2 624,685.3 615.6,644.7 632,623 	"/>
	<path class="st4" d="M699.1,659.3l-7.5,2.3L680,606.9l8.3-1.6C688.3,605.3,695.3,634.7,699.1,659.3z"/>
	<path class="st4" d="M577.6,586.8l3.9,35.8c0,0-5.8-4.9-8.9,1.6L577.6,586.8L577.6,586.8z"/>
	<polygon class="st4" points="695.5,728.1 646.3,719.1 642.2,676.2 691.6,661.6 	"/>
	<polygon class="st3" points="657.5,775 632,750.6 646.3,719.1 695.5,728.1 	"/>
	<polygon class="st4" points="614.4,789.9 593.2,766.8 632,750.6 657.5,775 	"/>
	<polygon class="st3" points="580.6,789.9 579.6,774.5 593.2,766.8 614.4,789.9 	"/>
	<path class="st4" d="M676.4,789.9L657.5,775l38-46.8l11.4,4.1c0,22.8-7.7,43.6-7.7,43.6c-1,2.4-4.9,5.6-4.9,5.6
		C688,785.9,676.4,789.9,676.4,789.9z"/>
	<polygon class="st4" points="620.7,715.7 615.3,715.8 609.8,688.9 624,685.3 	"/>
	<polygon class="st3" points="618.6,736.5 617.1,736.5 615.3,715.8 620.7,715.7 	"/>
	<polygon class="st4" points="632,750.6 618.6,736.5 620.7,715.7 646.3,719.1 	"/>
	<polygon class="st4" points="579.6,774.5 579.6,774.5 592.1,762.8 593.2,766.8 	"/>
	<path class="st4" d="M616.3,739.3L616.3,739.3c0,0,0.9-1.2,0.8-2.7l1.5,0L616.3,739.3z"/>
	<polygon class="st4" points="243.7,493.9 246,567.1 217.1,572 190.1,506.7 	"/>
	<polygon class="st3" points="138.2,531.7 185.2,565.9 202.8,537.8 175.8,472.4 	"/>
	<polygon class="st4" points="185.2,565.9 199.1,610.9 223.3,587.1 202.8,537.8 	"/>
	<path class="st4" d="M168.9,457.6l10,21.2l61-34.3l-5-32.7C234.9,411.8,191.4,435.4,168.9,457.6z"/>
	<polygon class="st3" points="199.1,610.9 210.1,643.3 219.4,622.9 223.3,587.1 	"/>
	<path class="st4" d="M133.4,529.4l4.9,2.2l37.5-59.3l-6.9-14.8C168.9,457.6,151,469.6,133.4,529.4z"/>
	<polygon class="st4" points="120.9,607.2 168.9,623.2 185.2,565.9 138.2,531.7 	"/>
	<path class="st4" d="M185.2,645"/>
	<path class="st4" d="M199.1,610.9"/>
	<polygon class="st3" points="109.3,661.9 158.7,676.5 168.9,623.2 120.9,607.2 	"/>
	<path class="st3" d="M176.9,685.5l14.2,3.7c5.7-17.6,11.5-29.1,11.5-29.1L185.2,645L176.9,685.5z"/>
	<polygon class="st4" points="158.7,676.5 176.9,685.5 185.2,645 168.9,623.2 	"/>
	<path class="st4" d="M101.8,659.6l7.5,2.3l11.6-54.7l-8.3-1.6C112.6,605.6,105.6,634.9,101.8,659.6z"/>
	<polygon class="st4" points="105.4,728.4 154.6,719.4 158.7,676.5 109.3,661.9 	"/>
	<polygon class="st3" points="143.4,775.2 168.9,750.9 154.6,719.4 105.4,728.4 	"/>
	<polygon class="st4" points="186.4,790.2 207.7,767.1 168.9,750.9 143.4,775.2 	"/>
	<polyline class="st3" points="207.7,767.1 186.4,790.2 220.3,790.2 220.1,774.7 	"/>
	<path class="st4" d="M124.4,790.2l18.9-14.9l-38-46.8L94,732.5c0,22.8,7.7,43.6,7.7,43.6c1,2.4,4.9,5.6,4.9,5.6
		C112.9,786.1,124.4,790.2,124.4,790.2z"/>
	<polygon class="st4" points="180.1,716 184.6,716.1 191.1,689.2 176.9,685.5 	"/>
	<path class="st3" d="M185.5,716.1"/>
	<path class="st3" d="M183.8,736.8"/>
	<polygon class="st4" points="168.9,750.9 182.3,736.8 180.1,716 154.6,719.4 	"/>
	<path class="st4" d="M223.3,587.2l-3.9,35.8c0,0,5.1-5,8.2,1.5L223.3,587.2L223.3,587.2z"/>
	<polygon class="st4" points="185.2,645 202.5,660.1 210.1,643.3 199.1,610.9 	"/>
	<polygon class="st4" points="220.1,774.7 219.6,774.5 209.2,764.1 207.7,767.1 	"/>
	<polygon class="st3" points="182.3,736.8 183.1,734 184.6,716.1 180.1,716 	"/>
</g>
<g>
	<polygon class="st4" points="385,467.8 387.4,531.4 423.1,531.7 425,465.5 	"/>
	<polygon class="st3" points="387.4,531.4 388.1,597.1 426.2,599.9 423.1,531.7 	"/>
	<polygon class="st4" points="388.1,597.1 392.8,656.7 425.2,657 426.8,599.9 	"/>
	<polygon class="st3" points="392.5,657 390.4,714.5 422.8,714.5 425.2,657 	"/>
	<polygon class="st4" points="390.4,714.5 390.4,762.8 423.4,764.7 422.8,714.5 	"/>
</g>
<path class="st5" d="M308.4,364.6c94,76.9,182.9,2.8,182.9,2.8l3.9,19.2l23.9-0.1c0,0-69.9,37.5-112.7,106.5
	c-56.9-71.8-123.6-108.2-123.6-108.2l20.8-2.5L308.4,364.6z"/>
<polygon class="st0" points="491.3,367.3 519.1,386.4 499,479.8 437.2,447.4 406.4,492.9 368,442.6 305.2,475.2 282.8,384.7 
	308.4,364.6 406.4,492.9 "/>
<line class="st6" x1="122.9" y1="794.9" x2="676.4" y2="794.9"/>
<circle class="st7" cx="405" cy="518" r="7.5"/>
<circle class="st7" cx="408.4" cy="592.4" r="7.5"/>
<circle class="st7" cx="408.4" cy="674.3" r="7.5"/>
<circle class="st7" cx="406.8" cy="747" r="7.5"/>
</svg>
