<?xml version="1.0" encoding="utf-8"?>
<!-- Generator: Adobe Illustrator 27.2.0, SVG Export Plug-In . SVG Version: 6.00 Build 0)  -->
<svg version="1.1" id="Calque_1" xmlns="http://www.w3.org/2000/svg" xmlns:xlink="http://www.w3.org/1999/xlink" x="0px" y="0px"
	 viewBox="0 0 800 800" style="enable-background:new 0 0 800 800;" xml:space="preserve">
<style type="text/css">
	.st0{fill:#FFB496;stroke:#000000;stroke-width:10;stroke-miterlimit:10;}
	.st1{fill:#237F2A;stroke:#000000;stroke-width:10;stroke-linejoin:round;stroke-miterlimit:10;}
	.st2{fill:#FFFFFF;}
	.st3{fill:#FFB496;stroke:#000000;stroke-width:10;stroke-linejoin:round;stroke-miterlimit:10;}
	.st4{fill:#646464;}
	.st5{fill:#FFB496;}
	.st6{fill:#282814;stroke:#000000;stroke-width:10;stroke-miterlimit:10;}
	.st7{fill:#141414;stroke:#000000;stroke-width:5;stroke-miterlimit:10;}
	.st8{fill:#FFB496;stroke:#000000;stroke-width:5;stroke-miterlimit:10;}
	.st9{fill:none;stroke:#000000;stroke-width:10;stroke-miterlimit:10;}
</style>
<path id="Left_arm" class="st0" d="M623.6,736.2c-0.8-35-20-60-20-60l111.7-18.9c0,0,19.3,62.1,0,120
	c-14.8,30.2-126.8,41.1-126.8,41.1l-2.4-46L623.6,736.2z"/>
<path id="Right_arm" class="st0" d="M177.9,736.2c0.8-35,20-60,20-60L86.2,657.3c0,0-19.3,62.1,0,120C101,807.5,213,818.4,213,818.4
	l2.4-46L177.9,736.2z"/>
<g id="Tee-shirt">
	<path id="Background" class="st1" d="M305.6,385.5c-5.8-7.6-130,39.1-162,70c-40,45.5-60,200-60,200s52.2,30.3,120,20l10-50
		c0,0,7.5,84.4,0,192.8H588c-7.1-105.7,0-192.8,0-192.8l10,50c68.7,7.3,68.7,7.3,120-20c0,0-19.1-154.5-60-200
		c-29.6-29.3-154.5-75.3-162-69L305.6,385.5z"/>
	<g id="Recycle_symbol">
		<g>
			<polygon class="st2" points="314.2,590.6 349.2,530 418.7,529.7 366.2,620.6 			"/>
			<polygon class="st2" points="454.5,529.6 482.8,578.5 491.4,573.5 465.7,611.4 419.4,615.1 428,610.1 403,566.8 424.5,529.6 			
				"/>
		</g>
		<g>
			<polygon class="st2" points="394.7,750.4 324.7,750.4 289.7,690.4 394.7,690.4 			"/>
			<polygon class="st2" points="271.7,659.4 300,610.5 291.3,605.5 337,608.8 363.4,647.1 354.7,642.1 329.7,685.4 286.7,685.4 			
				"/>
		</g>
		<g>
			<polygon class="st2" points="493.5,599.6 528.5,660.3 494,720.6 441.5,629.6 			"/>
			<polygon class="st2" points="476.2,751.7 419.7,751.7 419.7,761.7 399.7,720.4 419.7,678.4 419.7,688.4 469.7,688.4 491.2,725.7 
							"/>
		</g>
	</g>
</g>
<g id="Head_00000137851594333820240570000000196124171799771571_">
	<path id="Neck_00000164491315305902452950000005494592489333724568_" class="st3" d="M322.9,203.9l-20,201.6l2-20l-22,20
		c0,0,2.9,52.8,60,80c59.6,20.7,59.6,20.6,114.4,0c56.2-25.1,60-80,60-80l-22-19l2,19l-20-201.6H322.9z"/>
	<path id="Head_00000026860008632213233090000005917094435384230293_" class="st3" d="M250.1,172.4c0,0,0,40.5,20,110
		c18.2,70,32.3,57.1,75,90c32.1,17.5,80,17.5,110,0c51.1-36.9,62.2-30.5,75-90c20-67.2,20-110,20-110s0-150-150-150
		S250.1,172.4,250.1,172.4z"/>
	<g id="Beard">
		<g>
			<path class="st4" d="M259,221.8c37.3,89,82.4,90,82.4,90c18.7-19.4,40-20,40-20h37.7c0,0,21,0.9,40,20c0,0,42.7,0.3,81.5-87.2
				c0,0-12.2,47.4-15.6,57.9c-11.9,53.8-15.4,46-73.6,86c-13.3,9-59.9,23-104.2-0.5c-48-34.4-55.8-23.9-72.2-86.8L259,221.8z"/>
		</g>
		<path class="st5" d="M361.4,331.8c0-4.2,10.3-10,20-10s30.9,0,37.7,0s20,5,20,10c0,5-19.4,7-39.3,7S361.4,336,361.4,331.8z"/>
	</g>
	<path id="Hairs" class="st6" d="M567.1,121.3c-4.6-26-37.5-45.2-44.4-62.8c-30-32.5-36.6-36.1-122.6-36.1
		c-28.3-22.4-44.4-15.2-98.8,4c-32.2,10.7-56.6,65.2-61.2,75.1c-15.1,32.1,0,71,0,71l16.3,49.4c44.7-68.9,45.8-118.3,63.4-119.1
		c46.8,0.8,100.9,15.1,100.9,15.1s20.4,5.7,62.9-11.9c14.7,37.4,59.6,65,60.5,118.7l16-52.2C560.1,172.4,578.6,148.9,567.1,121.3z"
		/>
</g>
<g id="Glasses">
	<path class="st7" d="M246.4,221.8l30-10c48.7-10.6,108.8-3.8,118.4,10.9h12.1c11.9-16.1,70.8-22.3,117.3-10.9l30,10v30l-30-10
		c0,0-6.8,27.3-10,30c-4,4.3-86.9,5.9-95,0c-8.1-5.9-12.3-39.1-12.3-39.1h-12.1c0,0-4.8,32.1-13.4,39.1c-8.5,7-88.4,4.2-95,0
		c-3.5-2.7-10-30-10-30l-30,10V221.8z"/>
	<path class="st8" d="M281.4,216.8c0,0-8.1,6.2,10,50c0,0,57.6,5.2,85,0c0,0,8.7-3.7,13.4-39.1C389.8,227.7,358.1,203.9,281.4,216.8
		z"/>
	<path class="st8" d="M519.4,216.8c0,0,8.1,6.2-10,50c0,0-57.6,5.2-85,0c0,0-8.7-3.7-13.4-39.1C411,227.7,442.7,203.9,519.4,216.8z"
		/>
</g>
<line class="st9" x1="109.8" y1="795.4" x2="691.7" y2="795.4"/>
</svg>
