<?xml version="1.0" encoding="utf-8"?>
<!-- Generator: Adobe Illustrator 27.2.0, SVG Export Plug-In . SVG Version: 6.00 Build 0)  -->
<svg version="1.1" id="Calque_1" xmlns="http://www.w3.org/2000/svg" xmlns:xlink="http://www.w3.org/1999/xlink" x="0px" y="0px"
	 viewBox="0 0 800 800" style="enable-background:new 0 0 800 800;" xml:space="preserve">
<style type="text/css">
	.st0{fill:#FFFFFF;stroke:#000000;stroke-width:10;stroke-linejoin:round;stroke-miterlimit:10;}
	.st1{fill:#E7845B;stroke:#000000;stroke-width:10;stroke-linejoin:round;stroke-miterlimit:10;}
	.st2{fill:#101702;stroke:#000000;stroke-width:10;stroke-miterlimit:10;}
	.st3{fill:#FFD07F;}
	.st4{fill:#000090;}
	.st5{fill:#323232;}
	.st6{fill:#DCDCDC;stroke:#000000;stroke-width:10;stroke-linejoin:round;stroke-miterlimit:10;}
	.st7{fill:#AAAAAA;}
	.st8{fill:none;stroke:#000000;stroke-width:10;stroke-miterlimit:10;}
</style>
<path id="Tee-shirt_00000078755753984705238440000012939616670096393111_" class="st0" d="M704.6,658.1c0,0-25.6-156.3-66.5-201.8
	c-29.6-29.3-104.6-72.2-122-69l-230.4-1c-5.8-7.6-90,39.1-122,70C123.7,501.8,97,658.1,97,658.1s-19.3,62.1,0,120
	c1,2.1,4.2,4.9,4.2,4.9c30.2,22.9,122.6,36.2,122.6,36.2l2.4-46L188.7,737c0.8-35,13.3-61.5,13.3-61.5l21.7-49.2
	c0,0,7.5,84.4,0,192.8h354.4c-7.1-105.7,0-192.8,0-192.8l22.2,49.2c0,0,11.8,26.5,12.6,61.5l-37.5,36.2l2.4,46
	c0,0,108.6-18.4,122.9-35.9c0,0,2.9-3.1,3.9-5.2C723.9,720.2,704.6,658.1,704.6,658.1z"/>
<g id="Head_00000137851594333820240570000000196124171799771571_">
	<path id="Neck_00000164491315305902452950000005494592489333724568_" class="st1" d="M322.9,203.9l-20,201.6l2.3,15.8l96.3,33.4
		l97.3-24.5l-21.4-226.4H322.9z"/>
	<path id="Head_00000026860008632213233090000005917094435384230293_" class="st1" d="M250.1,172.4c0,0,0,40.5,20,110
		c18,46.2,37.3,57.1,80,90c32.1,17.5,70,17.5,100,0c51.1-36.9,61.7-42.3,80-90c20-67.2,20-110,20-110s0-150-150-150
		S250.1,172.4,250.1,172.4z"/>
	<path id="Hairs" class="st2" d="M395.6,12.6c33.6,0,63.2,1.6,83.5,13.8c14.3,8.6,44.6,32.1,53.6,43.7
		c34,43.5,17.4,102.4,17.4,102.4l-6,52.2c-0.9-53.7-32.9-95.6-67.4-101.1c-24.5,22.4-48.4-12.3-85-9.8c-8.3,0.6-21.2,29.6-29.1,29.9
		c-12.6,0.4-30-16.7-40.6-16.9c-17.6,0.8-20.9,26.2-65.6,95.1l-6.3-49.4c0,0-12.7-33.7,0-65.6c5.5-13.9,27.2-41.1,38.2-54.4
		C310.4,25.8,340.3,12.6,395.6,12.6z"/>
</g>
<polygon class="st3" points="289.3,446.9 305.7,660.6 290.4,794.9 511.7,794.9 498.7,617.7 518.1,456.8 "/>
<path class="st4" d="M168.1,464.7c-28.3,32.7-65.4,199.5-67.9,237.3s-5.1,57.2,13.3,70s105.9,32.8,105.9,32.8l1.1-21.3
	c0,0-65.7-16.1-78.4-42.7c-12.8-26.6,43.3-175.7,66.3-194.3c23-18.6,94.5,30.4,94.5,30.4L283.2,400
	C283.2,400,196.4,431.9,168.1,464.7z"/>
<path class="st4" d="M633.5,464.7c28.3,32.7,65.4,199.5,67.9,237.3c2.6,37.8,5.1,57.2-13.3,70s-105.9,32.8-105.9,32.8l-1.1-21.3
	c0,0,65.7-16.1,78.4-42.7c12.8-26.6-43.3-175.7-66.3-194.3c-23-18.6-94.5,30.4-94.5,30.4L518.4,400
	C518.4,400,605.2,431.9,633.5,464.7z"/>
<path class="st5" d="M575.9,617.1c21.8,4.6,53.1,80.8,44.8,122.1c-3.9,13.3-40.6,36.9-40.6,36.9l1,7.1c0,0,65.7-16.1,78.4-42.7
	c12.8-26.6-43.3-175.7-66.3-194.3c-23-18.6-94.5,30.4-94.5,30.4l1.8,66C500.5,642.7,551.8,615.3,575.9,617.1z"/>
<path class="st5" d="M225.7,617.1c-21.8,4.6-53.1,80.8-44.8,122.1c3.9,13.3,40.6,36.9,40.6,36.9l-1,7.1c0,0-65.7-16.1-78.4-42.7
	c-12.8-26.6,43.3-175.7,66.3-194.3s94.5,30.4,94.5,30.4l-1.8,66C301.1,642.7,249.9,615.3,225.7,617.1z"/>
<path class="st6" d="M520.2,392.7l68.1,93.7c0,0-66.1,39.3-77.6,66.4c-24.5,54.6,1,242,1,242l-25.5-262.5l27-111.2L520.2,392.7z"/>
<path class="st6" d="M281.9,392.7l-68.1,93.7c0,0,66.1,39.3,77.6,66.4c24.5,54.6-1,242-1,242l25.5-262.5l-27-111.2L281.9,392.7z"/>
<polygon class="st7" points="361.8,453.4 405.5,501 436.3,455.4 454,464.7 406.3,546.4 343.1,463.1 "/>
<path class="st0" d="M315.4,403.2c94,76.9,169,5.1,169,5.1l33.7-13.8c0,0-69.9,37.5-112.7,106.5c-56.9-71.8-123.6-108.2-123.6-108.2
	L315.4,403.2z"/>
<polygon class="st0" points="490.4,375.4 518.1,394.5 498,487.9 436.3,455.4 405.5,501 367.1,450.7 304.2,483.3 281.9,392.7 
	307.5,372.6 405.5,501 "/>
<line class="st8" x1="124" y1="794.9" x2="679.6" y2="794.9"/>
</svg>
