<?xml version="1.0" encoding="utf-8"?>
<!-- Generator: Adobe Illustrator 27.2.0, SVG Export Plug-In . SVG Version: 6.00 Build 0)  -->
<svg version="1.1" id="Calque_1" xmlns="http://www.w3.org/2000/svg" xmlns:xlink="http://www.w3.org/1999/xlink" x="0px" y="0px"
	 viewBox="0 0 800 800" style="enable-background:new 0 0 800 800;" xml:space="preserve">
<style type="text/css">
	.st0{fill:#FFC87F;stroke:#000000;stroke-width:10;stroke-miterlimit:10;}
	.st1{fill:#00B4FF;stroke:#000000;stroke-width:10;stroke-miterlimit:10;}
	.st2{fill:#FF3232;stroke:#000000;stroke-width:10;stroke-linejoin:round;stroke-miterlimit:10;}
	.st3{fill:#FFFFFF;stroke:#000000;stroke-width:10;stroke-miterlimit:10;}
	.st4{fill:#E6FF00;stroke:#000000;stroke-width:10;stroke-miterlimit:10;}
	.st5{fill:#FFFFFF;}
	.st6{fill:#FFC87F;stroke:#000000;stroke-width:10;stroke-linejoin:round;stroke-miterlimit:10;}
	.st7{fill:#645032;stroke:#000000;stroke-width:10;stroke-miterlimit:10;}
	.st8{fill:none;stroke:#000000;stroke-width:10;stroke-miterlimit:10;}
</style>
<g id="Left_arm_00000165948049921656746190000013933225809869742740_">
	<path class="st0" d="M612.1,736.2l-37.5,36.2l2.4,46c0,0,122.4-18.4,122.4-36.4L612.1,736.2z"/>
	<path class="st1" d="M703.8,657.3c0,0,19.3,62.1,0,120c-10.6,22.7-92.6-29.5-91.7-41.1c-0.8-35-20-60-20-60L703.8,657.3z"/>
</g>
<g id="Right_arm_00000092448806738539856090000002027438822189899677_">
	<path class="st0" d="M187.9,736.2l37.5,36.2l-2.4,46c0,0-122.4-18.4-122.4-36.4L187.9,736.2z"/>
	<path class="st1" d="M96.2,657.3c0,0-19.3,62.1,0,120c10.6,22.7,92.6-29.5,91.7-41.1c0.8-35,20-60,20-60L96.2,657.3z"/>
</g>
<g id="Tee-shirt">
	<path id="Background" class="st2" d="M304.9,385.5c-5.8-7.6-110,39.1-142,70c-40,45.5-70,200-70,200s52.2,30.3,120,20l10-50
		c0,0,7.5,84.4,0,192.8h354.4c-7.1-105.7,0-192.8,0-192.8l10,50c68.7,7.3,68.7,7.3,120-20c0,0-29.1-154.5-70-200
		c-29.6-29.3-134.5-75.3-142-69L304.9,385.5z"/>
	<g id="Logo_flash">
		<circle id="Circle" class="st3" cx="400.1" cy="657.3" r="90"/>
		<polygon id="Lightning" class="st4" points="480.1,517.3 350.1,642.3 380.1,642.3 340.1,692.3 370.1,692.3 310.1,782.3 
			440.1,667.3 410.1,667.3 450.1,617.3 420.1,617.3 		"/>
	</g>
	<g>
		<g>
			<path class="st5" d="M206.7,634.9c-16,0-50.3-3.1-101.5-23.8L108,600c55.1,20.8,88.9,24,104.2,24c3.7,0,6.6-0.2,8.6-0.4
				l-2.1,10.6C216.6,634.5,212.6,634.9,206.7,634.9z"/>
			<path d="M109.7,603.4c54,20.1,87.2,23.1,102.5,23.1c2.1,0,3.9-0.1,5.5-0.1l-1.1,5.6c-2.2,0.2-5.5,0.5-9.9,0.5
				c-15.6,0-48.8-3-98.5-22.8L109.7,603.4 M106.2,596.7l-3.9,15.9c51.7,21.2,86.5,24.8,104.4,24.8c9.4,0,14.1-1,14.1-1l3.2-15.8
				c0,0-3.8,0.8-11.7,0.8C195.9,621.5,161.9,618,106.2,596.7L106.2,596.7z"/>
		</g>
		<g>
			<path class="st5" d="M201.2,657c-16,0-50.3-3.1-101.5-23.8l2.7-11.1c55.1,20.8,88.9,24,104.2,24c3.7,0,6.6-0.2,8.6-0.4l-2.1,10.6
				C211.1,656.6,207.1,657,201.2,657z"/>
			<path d="M104.2,625.4c54,20.1,87.2,23.1,102.5,23.1c2.1,0,3.9-0.1,5.5-0.1L211,654c-2.2,0.2-5.5,0.5-9.9,0.5
				c-15.6,0-48.8-3-98.5-22.8L104.2,625.4 M100.7,618.7l-3.9,15.9c51.7,21.2,86.5,24.8,104.4,24.8c9.4,0,14.1-1,14.1-1l3.2-15.8
				c0,0-3.8,0.8-11.7,0.8C190.3,643.5,156.3,640,100.7,618.7L100.7,618.7z"/>
		</g>
	</g>
	<g>
		<g>
			<path class="st5" d="M591.9,634.9c-5.9,0-9.9-0.4-12-0.7l-2.1-10.6c2,0.2,4.9,0.4,8.6,0.4c15.3,0,49.1-3.1,104.2-24l2.7,11.1
				C642.2,631.8,607.9,634.9,591.9,634.9C591.9,634.9,591.9,634.9,591.9,634.9z"/>
			<path d="M688.9,603.4l1.5,6.3c-49.7,19.8-82.9,22.8-98.5,22.8c-4.4,0-7.7-0.2-9.9-0.5l-1.1-5.6c1.6,0.1,3.4,0.1,5.5,0.1
				C601.6,626.5,634.9,623.4,688.9,603.4 M692.4,596.7c-55.6,21.3-89.7,24.8-106,24.8c-8,0-11.7-0.8-11.7-0.8l3.2,15.8
				c0,0,4.7,1,14.1,1c17.9,0,52.7-3.6,104.4-24.8L692.4,596.7L692.4,596.7z"/>
		</g>
		<g>
			<path class="st5" d="M597.4,657c-5.9,0-9.9-0.4-12-0.7l-2.1-10.6c2,0.2,4.9,0.4,8.6,0.4c15.3,0,49.1-3.1,104.2-24l2.7,11.1
				C647.7,653.9,613.4,657,597.4,657C597.4,657,597.4,657,597.4,657z"/>
			<path d="M694.4,625.4l1.5,6.3c-49.7,19.8-82.9,22.8-98.5,22.8c-4.4,0-7.7-0.2-9.9-0.5l-1.1-5.6c1.6,0.1,3.4,0.1,5.5,0.1
				C607.2,648.5,640.4,645.5,694.4,625.4 M697.9,618.7c-55.6,21.3-89.7,24.8-106,24.8c-8,0-11.7-0.8-11.7-0.8l3.2,15.8
				c0,0,4.7,1,14.1,1c17.9,0,52.7-3.6,104.4-24.8L697.9,618.7L697.9,618.7z"/>
		</g>
	</g>
</g>
<g id="Head_00000137851594333820240570000000196124171799771571_">
	<path id="Neck_00000164491315305902452950000005494592489333724568_" class="st6" d="M322.9,203.9l-20,201.6l2-20l-22,20
		c0,0,2.9,52.8,60,80c59.6,20.7,59.6,20.6,114.4,0c56.2-25.1,60-80,60-80l-22-19l2,19l-20-201.6H322.9z"/>
	<path id="Head_00000026860008632213233090000005917094435384230293_" class="st6" d="M250.1,172.4c0,0,0,40.5,20,110
		c18,46.2,37.3,57.1,80,90c32.1,17.5,70,17.5,100,0c51.1-36.9,61.7-42.3,80-90c20-67.2,20-110,20-110s0-150-150-150
		S250.1,172.4,250.1,172.4z"/>
	<path id="Hairs" class="st7" d="M400.1,22.4c146.2,0,150,150,150,150l-6,52.2c-0.9-53.7-45.8-81.3-60.5-118.7
		c-42.5,17.6-62.9,11.9-62.9,11.9s-54.1-14.3-100.9-15.1c-17.6,0.8-18.7,50.2-63.4,119.1l-6.3-49.4
		C250.1,172.4,253.9,22.4,400.1,22.4z"/>
</g>
<line class="st8" x1="118.1" y1="795" x2="681.9" y2="795"/>
</svg>
